<?xml version="1.0" encoding="utf-8"?>
<!-- Generator: Adobe Illustrator 16.0.0, SVG Export Plug-In . SVG Version: 6.00 Build 0)  -->
<!DOCTYPE svg PUBLIC "-//W3C//DTD SVG 1.1//EN" "http://www.w3.org/Graphics/SVG/1.1/DTD/svg11.dtd">
<svg version="1.1" id="Layer_1" xmlns="http://www.w3.org/2000/svg" xmlns:xlink="http://www.w3.org/1999/xlink" x="0px" y="0px"
	 width="412px" height="412px" viewBox="50 50 412 412" enable-background="new 50 50 412 412" xml:space="preserve">
<path id="twitter-5-icon" d="M256,58c109.428,0,198,88.556,198,198c0,109.426-88.558,198-198,198c-109.429,0-198-88.558-198-198
	C58,146.574,146.556,58,256,58 M256,50C142.229,50,50,142.229,50,256c0,113.771,92.229,206,206,206c113.771,0,206-92.229,206-206
	C462,142.229,369.771,50,256,50L256,50z"/>
<g>
	<path d="M330.57,157.77H179.435c-12.516,0-22.665,10.145-22.665,22.665v151.117c0,12.527,10.149,22.679,22.665,22.679h151.134
		c12.518,0,22.662-10.151,22.663-22.678V180.435C353.232,167.916,343.088,157.77,330.57,157.77z M255,218.219
		c20.867,0,37.785,16.909,37.785,37.776c0,20.864-16.918,37.787-37.785,37.787s-37.781-16.923-37.781-37.787
		C217.219,235.128,234.133,218.219,255,218.219z M330.569,324.004c0,4.169-3.386,7.549-7.564,7.549H186.998
		c-4.179,0-7.563-3.38-7.563-7.549V240.88h17.104c-1.246,4.838-1.985,9.891-1.985,15.115c0,33.391,27.063,60.453,60.446,60.453
		c33.384,0,60.446-27.062,60.446-60.453c0-5.223-0.735-10.277-1.981-15.115h17.104V324.004z M330.569,210.662
		c0,4.17-3.386,7.557-7.564,7.557h-22.664c-4.175,0-7.556-3.387-7.556-7.557v-22.671c0-4.172,3.381-7.557,7.556-7.557h22.664
		c4.178,0,7.564,3.385,7.564,7.557V210.662z"/>
</g>
</svg>
